<svg xmlns="http://www.w3.org/2000/svg" viewBox="0 0 396 113.78"><path d="M24.56,24.45h12a2.35,2.35,0,0,1,1.68.7l4.61,4.6a2.2,2.2,0,0,1,.64,1.55v51A2.36,2.36,0,0,1,42.77,84l-5,5a2.36,2.36,0,0,1-1.67.69H24.62a2.36,2.36,0,0,1-2.36-2.36V26.75A2.3,2.3,0,0,1,24.56,24.45Z" style="fill:#fff"/><path d="M51,24.45h12a2.35,2.35,0,0,1,1.68.7l4.61,4.6a2.2,2.2,0,0,1,.64,1.55v51A2.36,2.36,0,0,1,69.18,84l-5,5a2.36,2.36,0,0,1-1.67.69H51a2.36,2.36,0,0,1-2.36-2.36V26.75A2.3,2.3,0,0,1,51,24.45Z" style="fill:#fff"/><path d="M77.38,24.45h12a2.37,2.37,0,0,1,1.68.7l4.6,4.6a2.16,2.16,0,0,1,.65,1.55v51a2.33,2.33,0,0,1-.7,1.67l-5,5a2.36,2.36,0,0,1-1.67.69H77.44a2.36,2.36,0,0,1-2.36-2.36V26.75A2.3,2.3,0,0,1,77.38,24.45Z" style="fill:#2e3192"/><path d="M128.52,55.12h-2a8.57,8.57,0,0,1,.2,2,9.07,9.07,0,0,1-.2,2h2a8.57,8.57,0,0,1,.2,2,9.07,9.07,0,0,1-.2,2,8.57,8.57,0,0,1,.2,2,9.07,9.07,0,0,1-.2,2h-2a8.57,8.57,0,0,1,.2,2,9.07,9.07,0,0,1-.2,2h-14a9.07,9.07,0,0,1-.2-2,8.57,8.57,0,0,1,.2-2,9.07,9.07,0,0,1-.2-2,8.57,8.57,0,0,1,.2-2,9.07,9.07,0,0,1-.2-2,8.57,8.57,0,0,1,.2-2,9.07,9.07,0,0,1-.2-2,8.57,8.57,0,0,1,.2-2,9.07,9.07,0,0,1-.2-2,8.57,8.57,0,0,1,.2-2,9.07,9.07,0,0,1-.2-2,8.57,8.57,0,0,1,.2-2,9.07,9.07,0,0,1-.2-2,8.57,8.57,0,0,1,.2-2h14a8.57,8.57,0,0,1,.2,2,9.07,9.07,0,0,1-.2,2h2a8.57,8.57,0,0,1,.2,2,9.07,9.07,0,0,1-.2,2,8.57,8.57,0,0,1,.2,2A9.07,9.07,0,0,1,128.52,55.12Zm-4.2-2a8.57,8.57,0,0,1,.2-2,9.07,9.07,0,0,1-.2-2,8.57,8.57,0,0,1,.2-2h-8a8.57,8.57,0,0,1,.2,2,9.07,9.07,0,0,1-.2,2,8.57,8.57,0,0,1,.2,2,9.07,9.07,0,0,1-.2,2h8A9.07,9.07,0,0,1,124.32,53.12Zm0,8a8.57,8.57,0,0,1,.2-2h-8a8.57,8.57,0,0,1,.2,2,9.07,9.07,0,0,1-.2,2,8.57,8.57,0,0,1,.2,2,9.07,9.07,0,0,1-.2,2h8a9.07,9.07,0,0,1-.2-2,8.57,8.57,0,0,1,.2-2A9.07,9.07,0,0,1,124.32,61.12Z" style="fill:#fff"/><path d="M146.72,69.12a9.07,9.07,0,0,1-.2,2h-12a9.07,9.07,0,0,1-.2-2,8.57,8.57,0,0,1,.2-2h4a9.07,9.07,0,0,1-.2-2,8.57,8.57,0,0,1,.2-2,9.07,9.07,0,0,1-.2-2,8.57,8.57,0,0,1,.2-2,9.07,9.07,0,0,1-.2-2,8.57,8.57,0,0,1,.2-2,9.07,9.07,0,0,1-.2-2,8.57,8.57,0,0,1,.2-2,9.07,9.07,0,0,1-.2-2,8.57,8.57,0,0,1,.2-2h-3a9.07,9.07,0,0,1-.2-2,8.57,8.57,0,0,1,.2-2h7a8.57,8.57,0,0,1,.2,2,9.07,9.07,0,0,1-.2,2,8.57,8.57,0,0,1,.2,2,9.07,9.07,0,0,1-.2,2,8.57,8.57,0,0,1,.2,2,9.07,9.07,0,0,1-.2,2,8.57,8.57,0,0,1,.2,2,9.07,9.07,0,0,1-.2,2,8.57,8.57,0,0,1,.2,2,9.07,9.07,0,0,1-.2,2,8.57,8.57,0,0,1,.2,2,9.07,9.07,0,0,1-.2,2h4A8.57,8.57,0,0,1,146.72,69.12Z" style="fill:#fff"/><path d="M158,67.12h5a8.57,8.57,0,0,1,.2,2,9.07,9.07,0,0,1-.2,2h-8a9.07,9.07,0,0,1-.2-2,8.57,8.57,0,0,1,.2-2h-2.5a9.07,9.07,0,0,1-.2-2,8.57,8.57,0,0,1,.2-2,9.07,9.07,0,0,1-.2-2,8.57,8.57,0,0,1,.2-2,9.07,9.07,0,0,1-.2-2,8.57,8.57,0,0,1,.2-2,9.07,9.07,0,0,1-.2-2,8.57,8.57,0,0,1,.2-2h4a8.57,8.57,0,0,1,.2,2,9.07,9.07,0,0,1-.2,2,8.57,8.57,0,0,1,.2,2,9.07,9.07,0,0,1-.2,2,8.57,8.57,0,0,1,.2,2,9.07,9.07,0,0,1-.2,2H158a8.57,8.57,0,0,1,.2,2A9.07,9.07,0,0,1,158,67.12Zm10.7-10a9.07,9.07,0,0,1-.2,2,8.57,8.57,0,0,1,.2,2,9.07,9.07,0,0,1-.2,2,8.57,8.57,0,0,1,.2,2,9.07,9.07,0,0,1-.2,2,8.57,8.57,0,0,1,.2,2,9.07,9.07,0,0,1-.2,2h-4a9.07,9.07,0,0,1-.2-2,8.57,8.57,0,0,1,.2-2H163a9.07,9.07,0,0,1-.2-2,8.57,8.57,0,0,1,.2-2h1.5a9.07,9.07,0,0,1-.2-2,8.57,8.57,0,0,1,.2-2,9.07,9.07,0,0,1-.2-2,8.57,8.57,0,0,1,.2-2,9.07,9.07,0,0,1-.2-2,8.57,8.57,0,0,1,.2-2h4a8.57,8.57,0,0,1,.2,2,9.07,9.07,0,0,1-.2,2A8.57,8.57,0,0,1,168.72,57.12Z" style="fill:#fff"/><path d="M188.52,59.12a8.57,8.57,0,0,1,.2,2,9.07,9.07,0,0,1-.2,2H178a8.57,8.57,0,0,1,.2,2,9.07,9.07,0,0,1-.2,2h8.5a8.57,8.57,0,0,1,.2,2,9.07,9.07,0,0,1-.2,2h-10a9.07,9.07,0,0,1-.2-2,8.57,8.57,0,0,1,.2-2H174a9.07,9.07,0,0,1-.2-2,8.57,8.57,0,0,1,.2-2h-1.5a9.07,9.07,0,0,1-.2-2,8.57,8.57,0,0,1,.2-2H174a9.07,9.07,0,0,1-.2-2,8.57,8.57,0,0,1,.2-2h2.5a9.07,9.07,0,0,1-.2-2,8.57,8.57,0,0,1,.2-2h10a8.57,8.57,0,0,1,.2,2,9.07,9.07,0,0,1-.2,2h2a8.57,8.57,0,0,1,.2,2A9.07,9.07,0,0,1,188.52,59.12Zm-4.2-2a8.57,8.57,0,0,1,.2-2H178a8.57,8.57,0,0,1,.2,2,9.07,9.07,0,0,1-.2,2h6.5A9.07,9.07,0,0,1,184.32,57.12Z" style="fill:#fff"/><path d="M208.52,51.12a8.57,8.57,0,0,1,.2,2,9.07,9.07,0,0,1-.2,2h-2a8.57,8.57,0,0,1,.2,2,9.07,9.07,0,0,1-.2,2h-10a8.57,8.57,0,0,1,.2,2,9.07,9.07,0,0,1-.2,2,8.57,8.57,0,0,1,.2,2,9.07,9.07,0,0,1-.2,2,8.57,8.57,0,0,1,.2,2,9.07,9.07,0,0,1-.2,2h-4a9.07,9.07,0,0,1-.2-2,8.57,8.57,0,0,1,.2-2,9.07,9.07,0,0,1-.2-2,8.57,8.57,0,0,1,.2-2,9.07,9.07,0,0,1-.2-2,8.57,8.57,0,0,1,.2-2,9.07,9.07,0,0,1-.2-2,8.57,8.57,0,0,1,.2-2,9.07,9.07,0,0,1-.2-2,8.57,8.57,0,0,1,.2-2,9.07,9.07,0,0,1-.2-2,8.57,8.57,0,0,1,.2-2,9.07,9.07,0,0,1-.2-2,8.57,8.57,0,0,1,.2-2h14a8.57,8.57,0,0,1,.2,2,9.07,9.07,0,0,1-.2,2h2a8.57,8.57,0,0,1,.2,2A9.07,9.07,0,0,1,208.52,51.12Zm-4.2,2a8.57,8.57,0,0,1,.2-2,9.07,9.07,0,0,1-.2-2,8.57,8.57,0,0,1,.2-2h-8a8.57,8.57,0,0,1,.2,2,9.07,9.07,0,0,1-.2,2,8.57,8.57,0,0,1,.2,2,9.07,9.07,0,0,1-.2,2h8A9.07,9.07,0,0,1,204.32,53.12Z" style="fill:#fff"/><path d="M226.72,69.12a9.07,9.07,0,0,1-.2,2h-12a9.07,9.07,0,0,1-.2-2,8.57,8.57,0,0,1,.2-2h4a9.07,9.07,0,0,1-.2-2,8.57,8.57,0,0,1,.2-2,9.07,9.07,0,0,1-.2-2,8.57,8.57,0,0,1,.2-2,9.07,9.07,0,0,1-.2-2,8.57,8.57,0,0,1,.2-2h-3a9.07,9.07,0,0,1-.2-2,8.57,8.57,0,0,1,.2-2h7a8.57,8.57,0,0,1,.2,2,9.07,9.07,0,0,1-.2,2,8.57,8.57,0,0,1,.2,2,9.07,9.07,0,0,1-.2,2,8.57,8.57,0,0,1,.2,2,9.07,9.07,0,0,1-.2,2,8.57,8.57,0,0,1,.2,2,9.07,9.07,0,0,1-.2,2h4A8.57,8.57,0,0,1,226.72,69.12Zm-8.2-22a9.07,9.07,0,0,1-.2-2,8.57,8.57,0,0,1,.2-2h4a8.57,8.57,0,0,1,.2,2,9.07,9.07,0,0,1-.2,2Z" style="fill:#fff"/><path d="M247.52,67.12a8.57,8.57,0,0,1,.2,2,9.07,9.07,0,0,1-.2,2h-4a9.07,9.07,0,0,1-.2-2,8.57,8.57,0,0,1,.2-2H242a9.07,9.07,0,0,1-.2-2,8.57,8.57,0,0,1,.2-2h-2.5a8.57,8.57,0,0,1,.2,2,9.07,9.07,0,0,1-.2,2h-2a8.57,8.57,0,0,1,.2,2,9.07,9.07,0,0,1-.2,2h-4a9.07,9.07,0,0,1-.2-2,8.57,8.57,0,0,1,.2-2h2a9.07,9.07,0,0,1-.2-2,8.57,8.57,0,0,1,.2-2h2a9.07,9.07,0,0,1-.2-2,8.57,8.57,0,0,1,.2-2h-2a9.07,9.07,0,0,1-.2-2,8.57,8.57,0,0,1,.2-2h-2a9.07,9.07,0,0,1-.2-2,8.57,8.57,0,0,1,.2-2h4a8.57,8.57,0,0,1,.2,2,9.07,9.07,0,0,1-.2,2h2a8.57,8.57,0,0,1,.2,2,9.07,9.07,0,0,1-.2,2H242a9.07,9.07,0,0,1-.2-2,8.57,8.57,0,0,1,.2-2h1.5a9.07,9.07,0,0,1-.2-2,8.57,8.57,0,0,1,.2-2h4a8.57,8.57,0,0,1,.2,2,9.07,9.07,0,0,1-.2,2H246a8.57,8.57,0,0,1,.2,2,9.07,9.07,0,0,1-.2,2h-2.5a8.57,8.57,0,0,1,.2,2,9.07,9.07,0,0,1-.2,2H246a8.57,8.57,0,0,1,.2,2,9.07,9.07,0,0,1-.2,2Z" style="fill:#fff"/><path d="M268.52,59.12a8.57,8.57,0,0,1,.2,2,9.07,9.07,0,0,1-.2,2H258a8.57,8.57,0,0,1,.2,2,9.07,9.07,0,0,1-.2,2h8.5a8.57,8.57,0,0,1,.2,2,9.07,9.07,0,0,1-.2,2h-10a9.07,9.07,0,0,1-.2-2,8.57,8.57,0,0,1,.2-2H254a9.07,9.07,0,0,1-.2-2,8.57,8.57,0,0,1,.2-2h-1.5a9.07,9.07,0,0,1-.2-2,8.57,8.57,0,0,1,.2-2H254a9.07,9.07,0,0,1-.2-2,8.57,8.57,0,0,1,.2-2h2.5a9.07,9.07,0,0,1-.2-2,8.57,8.57,0,0,1,.2-2h10a8.57,8.57,0,0,1,.2,2,9.07,9.07,0,0,1-.2,2h2a8.57,8.57,0,0,1,.2,2A9.07,9.07,0,0,1,268.52,59.12Zm-4.2-2a8.57,8.57,0,0,1,.2-2H258a8.57,8.57,0,0,1,.2,2,9.07,9.07,0,0,1-.2,2h6.5A9.07,9.07,0,0,1,264.32,57.12Z" style="fill:#fff"/><path d="M286.72,69.12a9.07,9.07,0,0,1-.2,2h-12a8.51,8.51,0,0,1-.2-2,8.06,8.06,0,0,1,.2-2h4a8.51,8.51,0,0,1-.2-2,8.06,8.06,0,0,1,.2-2,8.51,8.51,0,0,1-.2-2,8.06,8.06,0,0,1,.2-2,8.51,8.51,0,0,1-.2-2,8.06,8.06,0,0,1,.2-2,8.51,8.51,0,0,1-.2-2,8.06,8.06,0,0,1,.2-2,8.51,8.51,0,0,1-.2-2,8.06,8.06,0,0,1,.2-2h-3a8.51,8.51,0,0,1-.2-2,8.06,8.06,0,0,1,.2-2h7a8.57,8.57,0,0,1,.2,2,9.07,9.07,0,0,1-.2,2,8.57,8.57,0,0,1,.2,2,9.07,9.07,0,0,1-.2,2,8.57,8.57,0,0,1,.2,2,9.07,9.07,0,0,1-.2,2,8.57,8.57,0,0,1,.2,2,9.07,9.07,0,0,1-.2,2,8.57,8.57,0,0,1,.2,2,9.07,9.07,0,0,1-.2,2,8.57,8.57,0,0,1,.2,2,9.07,9.07,0,0,1-.2,2h4A8.57,8.57,0,0,1,286.72,69.12Z" style="fill:#fff"/><path d="M303,67.12a8.57,8.57,0,0,1,.2,2,9.07,9.07,0,0,1-.2,2h-5a8.51,8.51,0,0,1-.2-2,8.06,8.06,0,0,1,.2-2,8.51,8.51,0,0,1-.2-2,8.06,8.06,0,0,1,.2-2h5a8.57,8.57,0,0,1,.2,2A9.07,9.07,0,0,1,303,67.12Z" style="fill:#fff"/><path d="M322,55.12h-5a8.57,8.57,0,0,1,.2,2,9.07,9.07,0,0,1-.2,2h-1.5a8.57,8.57,0,0,1,.2,2,9.07,9.07,0,0,1-.2,2H317a8.57,8.57,0,0,1,.2,2,9.07,9.07,0,0,1-.2,2h5a8.57,8.57,0,0,1,.2,2,9.07,9.07,0,0,1-.2,2h-5.5a8.51,8.51,0,0,1-.2-2,8.06,8.06,0,0,1,.2-2H314a8.51,8.51,0,0,1-.2-2,8.06,8.06,0,0,1,.2-2h-1.5a8.51,8.51,0,0,1-.2-2,8.06,8.06,0,0,1,.2-2H314a8.51,8.51,0,0,1-.2-2,8.06,8.06,0,0,1,.2-2h2.5a8.51,8.51,0,0,1-.2-2,8.06,8.06,0,0,1,.2-2H322a8.57,8.57,0,0,1,.2,2A9.07,9.07,0,0,1,322,55.12Zm6.7-6a9.07,9.07,0,0,1-.2,2,8.57,8.57,0,0,1,.2,2,9.07,9.07,0,0,1-.2,2,8.57,8.57,0,0,1,.2,2,9.07,9.07,0,0,1-.2,2,8.57,8.57,0,0,1,.2,2,9.07,9.07,0,0,1-.2,2,8.57,8.57,0,0,1,.2,2,9.07,9.07,0,0,1-.2,2,8.57,8.57,0,0,1,.2,2,9.07,9.07,0,0,1-.2,2h-4a8.51,8.51,0,0,1-.2-2,8.06,8.06,0,0,1,.2-2H323a8.51,8.51,0,0,1-.2-2,8.06,8.06,0,0,1,.2-2h1.5a8.51,8.51,0,0,1-.2-2,8.06,8.06,0,0,1,.2-2H323a8.51,8.51,0,0,1-.2-2,8.06,8.06,0,0,1,.2-2h1.5a8.51,8.51,0,0,1-.2-2,8.06,8.06,0,0,1,.2-2,8.51,8.51,0,0,1-.2-2,8.06,8.06,0,0,1,.2-2,8.51,8.51,0,0,1-.2-2,8.06,8.06,0,0,1,.2-2h4a8.57,8.57,0,0,1,.2,2,9.07,9.07,0,0,1-.2,2A8.57,8.57,0,0,1,328.72,49.12Z" style="fill:#fff"/><path d="M348.52,59.12a8.57,8.57,0,0,1,.2,2,9.07,9.07,0,0,1-.2,2H338a8.57,8.57,0,0,1,.2,2,9.07,9.07,0,0,1-.2,2h8.5a8.57,8.57,0,0,1,.2,2,9.07,9.07,0,0,1-.2,2h-10a8.51,8.51,0,0,1-.2-2,8.06,8.06,0,0,1,.2-2H334a8.51,8.51,0,0,1-.2-2,8.06,8.06,0,0,1,.2-2h-1.5a8.51,8.51,0,0,1-.2-2,8.06,8.06,0,0,1,.2-2H334a8.51,8.51,0,0,1-.2-2,8.06,8.06,0,0,1,.2-2h2.5a8.51,8.51,0,0,1-.2-2,8.06,8.06,0,0,1,.2-2h10a8.57,8.57,0,0,1,.2,2,9.07,9.07,0,0,1-.2,2h2a8.57,8.57,0,0,1,.2,2A9.07,9.07,0,0,1,348.52,59.12Zm-4.2-2a8.06,8.06,0,0,1,.2-2H338a8.57,8.57,0,0,1,.2,2,9.07,9.07,0,0,1-.2,2h6.5A8.51,8.51,0,0,1,344.32,57.12Z" style="fill:#fff"/><path d="M368.52,55.12H367a8.57,8.57,0,0,1,.2,2,9.07,9.07,0,0,1-.2,2h-1.5a8.57,8.57,0,0,1,.2,2,9.07,9.07,0,0,1-.2,2h-1a8.57,8.57,0,0,1,.2,2,9.07,9.07,0,0,1-.2,2h-2a8.57,8.57,0,0,1,.2,2,9.07,9.07,0,0,1-.2,2h-4a8.51,8.51,0,0,1-.2-2,8.06,8.06,0,0,1,.2-2h-2a8.51,8.51,0,0,1-.2-2,8.06,8.06,0,0,1,.2-2h-1a8.51,8.51,0,0,1-.2-2,8.06,8.06,0,0,1,.2-2H354a8.51,8.51,0,0,1-.2-2,8.06,8.06,0,0,1,.2-2h-1.5a8.51,8.51,0,0,1-.2-2,8.06,8.06,0,0,1,.2-2h4a8.57,8.57,0,0,1,.2,2,9.07,9.07,0,0,1-.2,2H358a8.57,8.57,0,0,1,.2,2,9.07,9.07,0,0,1-.2,2h1.5a8.57,8.57,0,0,1,.2,2,9.07,9.07,0,0,1-.2,2h2a8.51,8.51,0,0,1-.2-2,8.06,8.06,0,0,1,.2-2H363a8.51,8.51,0,0,1-.2-2,8.06,8.06,0,0,1,.2-2h1.5a8.51,8.51,0,0,1-.2-2,8.06,8.06,0,0,1,.2-2h4a8.57,8.57,0,0,1,.2,2A9.07,9.07,0,0,1,368.52,55.12Z" style="fill:#fff"/><path d="M120.29,77.76a4.09,4.09,0,0,1-.09.92,4,4,0,0,1,.09.92,4.09,4.09,0,0,1-.09.92,4,4,0,0,1,.09.92,4.09,4.09,0,0,1-.09.92h-.69a4,4,0,0,1,.09.92,4.09,4.09,0,0,1-.09.92,4,4,0,0,1,.09.92,4.09,4.09,0,0,1-.09.92h-.46a4,4,0,0,1,.09.92,4.09,4.09,0,0,1-.09.92h-1.38a4.09,4.09,0,0,1-.09-.92,4,4,0,0,1,.09-.92h-.46a4.09,4.09,0,0,1-.09-.92,4,4,0,0,1,.09-.92h-1.38a4,4,0,0,1,.09.92,4.09,4.09,0,0,1-.09.92h-.46a4,4,0,0,1,.09.92,4.09,4.09,0,0,1-.09.92H114a4.09,4.09,0,0,1-.09-.92A4,4,0,0,1,114,86h-.46a4.09,4.09,0,0,1-.09-.92,4,4,0,0,1,.09-.92,4.09,4.09,0,0,1-.09-.92,4,4,0,0,1,.09-.92h-.69a4.09,4.09,0,0,1-.09-.92,4,4,0,0,1,.09-.92,4.09,4.09,0,0,1-.09-.92,4,4,0,0,1,.09-.92,4.09,4.09,0,0,1-.09-.92,4,4,0,0,1,.09-.92,4.09,4.09,0,0,1-.09-.92,4,4,0,0,1,.09-.92h1.84a4,4,0,0,1,.09.92,4.09,4.09,0,0,1-.09.92,4,4,0,0,1,.09.92,4.09,4.09,0,0,1-.09.92,4,4,0,0,1,.09.92,4.09,4.09,0,0,1-.09.92,4,4,0,0,1,.09.92,4.09,4.09,0,0,1-.09.92,4,4,0,0,1,.09.92,4.09,4.09,0,0,1-.09.92h.69a4.09,4.09,0,0,1-.09-.92,4,4,0,0,1,.09-.92h.46a4.09,4.09,0,0,1-.09-.92,4,4,0,0,1,.09-.92,4.09,4.09,0,0,1-.09-.92,4,4,0,0,1,.09-.92,4.09,4.09,0,0,1-.09-.92,4,4,0,0,1,.09-.92,4.09,4.09,0,0,1-.09-.92,4,4,0,0,1,.09-.92h1.38a4,4,0,0,1,.09.92,4.09,4.09,0,0,1-.09.92,4,4,0,0,1,.09.92,4.09,4.09,0,0,1-.09.92,4,4,0,0,1,.09.92,4.09,4.09,0,0,1-.09.92,4,4,0,0,1,.09.92,4.09,4.09,0,0,1-.09.92h.46a4,4,0,0,1,.09.92,4.09,4.09,0,0,1-.09.92h.69a4.09,4.09,0,0,1-.09-.92,4,4,0,0,1,.09-.92,4.09,4.09,0,0,1-.09-.92,4,4,0,0,1,.09-.92,4.09,4.09,0,0,1-.09-.92,4,4,0,0,1,.09-.92,4.09,4.09,0,0,1-.09-.92,4,4,0,0,1,.09-.92,4.09,4.09,0,0,1-.09-.92,4,4,0,0,1,.09-.92h1.84a4,4,0,0,1,.09.92,4.09,4.09,0,0,1-.09.92A4,4,0,0,1,120.29,77.76Z" style="fill:#f1f2f2"/><path d="M129.4,82.36a4,4,0,0,1,.09.92,4.09,4.09,0,0,1-.09.92h-4.83a4,4,0,0,1,.09.92,4.09,4.09,0,0,1-.09.92h3.91a4,4,0,0,1,.09.92,4.09,4.09,0,0,1-.09.92h-4.6a4.09,4.09,0,0,1-.09-.92,4,4,0,0,1,.09-.92h-1.15a4.09,4.09,0,0,1-.09-.92,4,4,0,0,1,.09-.92H122a4.09,4.09,0,0,1-.09-.92,4,4,0,0,1,.09-.92h.69a4.09,4.09,0,0,1-.09-.92,4,4,0,0,1,.09-.92h1.15a4.09,4.09,0,0,1-.09-.92,4,4,0,0,1,.09-.92h4.6a4,4,0,0,1,.09.92,4.09,4.09,0,0,1-.09.92h.92a4,4,0,0,1,.09.92A4.09,4.09,0,0,1,129.4,82.36Zm-1.93-.92a4,4,0,0,1,.09-.92h-3a4,4,0,0,1,.09.92,4.09,4.09,0,0,1-.09.92h3A4.09,4.09,0,0,1,127.47,81.44Z" style="fill:#f1f2f2"/><path d="M133.17,85.12a4.09,4.09,0,0,1-.09.92h-.92a4,4,0,0,1,.09.92,4.09,4.09,0,0,1-.09.92h-.92a4.09,4.09,0,0,1-.09-.92,4,4,0,0,1,.09-.92,4.09,4.09,0,0,1-.09-.92,4,4,0,0,1,.09-.92,4.09,4.09,0,0,1-.09-.92,4,4,0,0,1,.09-.92,4.09,4.09,0,0,1-.09-.92,4,4,0,0,1,.09-.92,4.09,4.09,0,0,1-.09-.92,4,4,0,0,1,.09-.92,4.09,4.09,0,0,1-.09-.92,4,4,0,0,1,.09-.92,4.09,4.09,0,0,1-.09-.92,4,4,0,0,1,.09-.92h1.84a4,4,0,0,1,.09.92,4.09,4.09,0,0,1-.09.92,4,4,0,0,1,.09.92,4.09,4.09,0,0,1-.09.92,4,4,0,0,1,.09.92,4.09,4.09,0,0,1-.09.92H134a4,4,0,0,1,.09.92,4.09,4.09,0,0,1-.09.92h-.92a4,4,0,0,1,.09.92,4.09,4.09,0,0,1-.09.92A4,4,0,0,1,133.17,85.12Zm-.09.92h2.76a4,4,0,0,1,.09.92,4.09,4.09,0,0,1-.09.92h-2.76A4.09,4.09,0,0,1,133,87,4,4,0,0,1,133.08,86Zm5.52-1.84h-.92a4,4,0,0,1,.09.92,4.09,4.09,0,0,1-.09.92h-1.84a4.09,4.09,0,0,1-.09-.92,4,4,0,0,1,.09-.92h.92a4.09,4.09,0,0,1-.09-.92,4,4,0,0,1,.09-.92h-.92a4.09,4.09,0,0,1-.09-.92,4,4,0,0,1,.09-.92H134a4.09,4.09,0,0,1-.09-.92,4,4,0,0,1,.09-.92h2.76a4,4,0,0,1,.09.92,4.09,4.09,0,0,1-.09.92h.92a4,4,0,0,1,.09.92,4.09,4.09,0,0,1-.09.92h.92a4,4,0,0,1,.09.92A4.09,4.09,0,0,1,138.6,84.2Z" style="fill:#f1f2f2"/><path d="M157.09,81.44a4.09,4.09,0,0,1-.09.92,4,4,0,0,1,.09.92,4.09,4.09,0,0,1-.09.92h-.92a4,4,0,0,1,.09.92,4.09,4.09,0,0,1-.09.92h-.92a4,4,0,0,1,.09.92,4.09,4.09,0,0,1-.09.92h-5.52a4.09,4.09,0,0,1-.09-.92,4,4,0,0,1,.09-.92,4.09,4.09,0,0,1-.09-.92,4,4,0,0,1,.09-.92,4.09,4.09,0,0,1-.09-.92,4,4,0,0,1,.09-.92,4.09,4.09,0,0,1-.09-.92,4,4,0,0,1,.09-.92,4.09,4.09,0,0,1-.09-.92,4,4,0,0,1,.09-.92,4.09,4.09,0,0,1-.09-.92,4,4,0,0,1,.09-.92,4.09,4.09,0,0,1-.09-.92,4,4,0,0,1,.09-.92h5.52a4,4,0,0,1,.09.92,4.09,4.09,0,0,1-.09.92h.92a4,4,0,0,1,.09.92,4.09,4.09,0,0,1-.09.92H157a4,4,0,0,1,.09.92,4.09,4.09,0,0,1-.09.92A4,4,0,0,1,157.09,81.44Zm-2,1.84a4,4,0,0,1,.09-.92,4.09,4.09,0,0,1-.09-.92,4,4,0,0,1,.09-.92,4.09,4.09,0,0,1-.09-.92,4,4,0,0,1,.09-.92h-.92a4.09,4.09,0,0,1-.09-.92,4,4,0,0,1,.09-.92h-2.76a4,4,0,0,1,.09.92,4.09,4.09,0,0,1-.09.92,4,4,0,0,1,.09.92,4.09,4.09,0,0,1-.09.92,4,4,0,0,1,.09.92,4.09,4.09,0,0,1-.09.92,4,4,0,0,1,.09.92,4.09,4.09,0,0,1-.09.92,4,4,0,0,1,.09.92,4.09,4.09,0,0,1-.09.92h2.76a4.09,4.09,0,0,1-.09-.92,4,4,0,0,1,.09-.92h.92A4.09,4.09,0,0,1,155.07,83.28Z" style="fill:#f1f2f2"/><path d="M166.2,82.36a4,4,0,0,1,.09.92,4.09,4.09,0,0,1-.09.92h-4.83a4,4,0,0,1,.09.92,4.09,4.09,0,0,1-.09.92h3.91a4,4,0,0,1,.09.92,4.09,4.09,0,0,1-.09.92h-4.6a4.09,4.09,0,0,1-.09-.92,4,4,0,0,1,.09-.92h-1.15a4.09,4.09,0,0,1-.09-.92,4,4,0,0,1,.09-.92h-.69a4.09,4.09,0,0,1-.09-.92,4,4,0,0,1,.09-.92h.69a4.09,4.09,0,0,1-.09-.92,4,4,0,0,1,.09-.92h1.15a4.09,4.09,0,0,1-.09-.92,4,4,0,0,1,.09-.92h4.6a4,4,0,0,1,.09.92,4.09,4.09,0,0,1-.09.92h.92a4,4,0,0,1,.09.92A4.09,4.09,0,0,1,166.2,82.36Zm-1.93-.92a4,4,0,0,1,.09-.92h-3a4,4,0,0,1,.09.92,4.09,4.09,0,0,1-.09.92h3A4.09,4.09,0,0,1,164.27,81.44Z" style="fill:#f1f2f2"/><path d="M174.94,86H174a4,4,0,0,1,.09.92,4.09,4.09,0,0,1-.09.92H169a4.09,4.09,0,0,1-.09-.92A4,4,0,0,1,169,86h4.14a4.09,4.09,0,0,1-.09-.92,4,4,0,0,1,.09-.92h-3.68a4.09,4.09,0,0,1-.09-.92,4,4,0,0,1,.09-.92h-.92a4.09,4.09,0,0,1-.09-.92,4,4,0,0,1,.09-.92h.92a4.09,4.09,0,0,1-.09-.92,4,4,0,0,1,.09-.92h5.06a4,4,0,0,1,.09.92,4.09,4.09,0,0,1-.09.92h-4.14a4,4,0,0,1,.09.92,4.09,4.09,0,0,1-.09.92H174a4,4,0,0,1,.09.92,4.09,4.09,0,0,1-.09.92h.92a4,4,0,0,1,.09.92A4.09,4.09,0,0,1,174.94,86Z" style="fill:#f1f2f2"/><path d="M183.77,87a4.09,4.09,0,0,1-.09.92h-5.52a4.09,4.09,0,0,1-.09-.92,4,4,0,0,1,.09-.92H180a4.09,4.09,0,0,1-.09-.92,4,4,0,0,1,.09-.92,4.09,4.09,0,0,1-.09-.92,4,4,0,0,1,.09-.92,4.09,4.09,0,0,1-.09-.92,4,4,0,0,1,.09-.92h-1.38a4.09,4.09,0,0,1-.09-.92,4,4,0,0,1,.09-.92h3.22a4,4,0,0,1,.09.92,4.09,4.09,0,0,1-.09.92,4,4,0,0,1,.09.92,4.09,4.09,0,0,1-.09.92,4,4,0,0,1,.09.92,4.09,4.09,0,0,1-.09.92,4,4,0,0,1,.09.92,4.09,4.09,0,0,1-.09.92h1.84A4,4,0,0,1,183.77,87ZM180,76.84a4.09,4.09,0,0,1-.09-.92A4,4,0,0,1,180,75h1.84a4,4,0,0,1,.09.92,4.09,4.09,0,0,1-.09.92Z" style="fill:#f1f2f2"/><path d="M193.89,81.44a4.09,4.09,0,0,1-.09.92,4,4,0,0,1,.09.92,4.09,4.09,0,0,1-.09.92,4,4,0,0,1,.09.92,4.09,4.09,0,0,1-.09.92,4,4,0,0,1,.09.92,4.09,4.09,0,0,1-.09.92h-.92a4,4,0,0,1,.09.92,4.09,4.09,0,0,1-.09.92H192a4,4,0,0,1,.09.92,4.09,4.09,0,0,1-.09.92h-3.68a4.09,4.09,0,0,1-.09-.92,4,4,0,0,1,.09-.92H191a4.09,4.09,0,0,1-.09-.92,4,4,0,0,1,.09-.92H192a4.09,4.09,0,0,1-.09-.92A4,4,0,0,1,192,86H191a4.09,4.09,0,0,1-.09-.92,4,4,0,0,1,.09-.92H192a4.09,4.09,0,0,1-.09-.92,4,4,0,0,1,.09-.92,4.09,4.09,0,0,1-.09-.92,4,4,0,0,1,.09-.92h-3a4,4,0,0,1,.09.92,4.09,4.09,0,0,1-.09.92h-.69a4,4,0,0,1,.09.92,4.09,4.09,0,0,1-.09.92H189a4,4,0,0,1,.09.92A4.09,4.09,0,0,1,189,86H191a4,4,0,0,1,.09.92,4.09,4.09,0,0,1-.09.92h-2.76a4.09,4.09,0,0,1-.09-.92,4,4,0,0,1,.09-.92h-1.15a4.09,4.09,0,0,1-.09-.92,4,4,0,0,1,.09-.92h-.69a4.09,4.09,0,0,1-.09-.92,4,4,0,0,1,.09-.92h.69a4.09,4.09,0,0,1-.09-.92,4,4,0,0,1,.09-.92h1.15a4.09,4.09,0,0,1-.09-.92,4,4,0,0,1,.09-.92h5.52a4,4,0,0,1,.09.92,4.09,4.09,0,0,1-.09.92A4,4,0,0,1,193.89,81.44Z" style="fill:#f1f2f2"/><path d="M197.25,80.52h.92a4,4,0,0,1,.09.92,4.09,4.09,0,0,1-.09.92h-.69a4,4,0,0,1,.09.92,4.09,4.09,0,0,1-.09.92,4,4,0,0,1,.09.92,4.09,4.09,0,0,1-.09.92,4,4,0,0,1,.09.92,4.09,4.09,0,0,1-.09.92h-1.84a4.09,4.09,0,0,1-.09-.92,4,4,0,0,1,.09-.92,4.09,4.09,0,0,1-.09-.92,4,4,0,0,1,.09-.92,4.09,4.09,0,0,1-.09-.92,4,4,0,0,1,.09-.92,4.09,4.09,0,0,1-.09-.92,4,4,0,0,1,.09-.92,4.09,4.09,0,0,1-.09-.92,4,4,0,0,1,.09-.92h1.61a4,4,0,0,1,.09.92A4.09,4.09,0,0,1,197.25,80.52Zm5.84,2.76a4.09,4.09,0,0,1-.09.92,4,4,0,0,1,.09.92A4.09,4.09,0,0,1,203,86a4,4,0,0,1,.09.92,4.09,4.09,0,0,1-.09.92h-1.84a4.09,4.09,0,0,1-.09-.92,4,4,0,0,1,.09-.92,4.09,4.09,0,0,1-.09-.92,4,4,0,0,1,.09-.92,4.09,4.09,0,0,1-.09-.92,4,4,0,0,1,.09-.92,4.09,4.09,0,0,1-.09-.92,4,4,0,0,1,.09-.92h-3a4.09,4.09,0,0,1-.09-.92,4,4,0,0,1,.09-.92h3.68a4,4,0,0,1,.09.92,4.09,4.09,0,0,1-.09.92H203a4,4,0,0,1,.09.92,4.09,4.09,0,0,1-.09.92A4,4,0,0,1,203.09,83.28Z" style="fill:#f1f2f2"/><path d="M221.49,87a4.09,4.09,0,0,1-.09.92h-1.84a4.09,4.09,0,0,1-.09-.92,4,4,0,0,1,.09-.92h-.92a4.09,4.09,0,0,1-.09-.92,4,4,0,0,1,.09-.92h-2.76a4,4,0,0,1,.09.92,4.09,4.09,0,0,1-.09.92h2.76a4,4,0,0,1,.09.92,4.09,4.09,0,0,1-.09.92H215a4.09,4.09,0,0,1-.09-.92A4,4,0,0,1,215,86H214a4.09,4.09,0,0,1-.09-.92,4,4,0,0,1,.09-.92H215a4.09,4.09,0,0,1-.09-.92,4,4,0,0,1,.09-.92h3.68a4.09,4.09,0,0,1-.09-.92,4,4,0,0,1,.09-.92h-3.22a4.09,4.09,0,0,1-.09-.92,4,4,0,0,1,.09-.92h4.14a4,4,0,0,1,.09.92,4.09,4.09,0,0,1-.09.92h.92a4,4,0,0,1,.09.92,4.09,4.09,0,0,1-.09.92,4,4,0,0,1,.09.92,4.09,4.09,0,0,1-.09.92,4,4,0,0,1,.09.92,4.09,4.09,0,0,1-.09.92h.92A4,4,0,0,1,221.49,87Z" style="fill:#f1f2f2"/><path d="M224.85,80.52h.92a4,4,0,0,1,.09.92,4.09,4.09,0,0,1-.09.92h-.69a4,4,0,0,1,.09.92,4.09,4.09,0,0,1-.09.92,4,4,0,0,1,.09.92,4.09,4.09,0,0,1-.09.92,4,4,0,0,1,.09.92,4.09,4.09,0,0,1-.09.92h-1.84a4.09,4.09,0,0,1-.09-.92,4,4,0,0,1,.09-.92,4.09,4.09,0,0,1-.09-.92,4,4,0,0,1,.09-.92,4.09,4.09,0,0,1-.09-.92,4,4,0,0,1,.09-.92,4.09,4.09,0,0,1-.09-.92,4,4,0,0,1,.09-.92,4.09,4.09,0,0,1-.09-.92,4,4,0,0,1,.09-.92h1.61a4,4,0,0,1,.09.92A4.09,4.09,0,0,1,224.85,80.52Zm5.84,2.76a4.09,4.09,0,0,1-.09.92,4,4,0,0,1,.09.92,4.09,4.09,0,0,1-.09.92,4,4,0,0,1,.09.92,4.09,4.09,0,0,1-.09.92h-1.84a4.09,4.09,0,0,1-.09-.92,4,4,0,0,1,.09-.92,4.09,4.09,0,0,1-.09-.92,4,4,0,0,1,.09-.92,4.09,4.09,0,0,1-.09-.92,4,4,0,0,1,.09-.92,4.09,4.09,0,0,1-.09-.92,4,4,0,0,1,.09-.92h-3a4.09,4.09,0,0,1-.09-.92,4,4,0,0,1,.09-.92h3.68a4,4,0,0,1,.09.92,4.09,4.09,0,0,1-.09.92h1.15a4,4,0,0,1,.09.92,4.09,4.09,0,0,1-.09.92A4,4,0,0,1,230.69,83.28Z" style="fill:#f1f2f2"/><path d="M236.81,80.52h-2.3a4,4,0,0,1,.09.92,4.09,4.09,0,0,1-.09.92h-.69a4,4,0,0,1,.09.92,4.09,4.09,0,0,1-.09.92h.69a4,4,0,0,1,.09.92,4.09,4.09,0,0,1-.09.92h2.3a4,4,0,0,1,.09.92,4.09,4.09,0,0,1-.09.92h-2.53a4.09,4.09,0,0,1-.09-.92,4,4,0,0,1,.09-.92h-1.15a4.09,4.09,0,0,1-.09-.92,4,4,0,0,1,.09-.92h-.69a4.09,4.09,0,0,1-.09-.92,4,4,0,0,1,.09-.92h.69a4.09,4.09,0,0,1-.09-.92,4,4,0,0,1,.09-.92h1.15a4.09,4.09,0,0,1-.09-.92,4,4,0,0,1,.09-.92h2.53a4,4,0,0,1,.09.92A4.09,4.09,0,0,1,236.81,80.52Zm3.08-2.76a4.09,4.09,0,0,1-.09.92,4,4,0,0,1,.09.92,4.09,4.09,0,0,1-.09.92,4,4,0,0,1,.09.92,4.09,4.09,0,0,1-.09.92,4,4,0,0,1,.09.92,4.09,4.09,0,0,1-.09.92,4,4,0,0,1,.09.92,4.09,4.09,0,0,1-.09.92,4,4,0,0,1,.09.92,4.09,4.09,0,0,1-.09.92H238a4.09,4.09,0,0,1-.09-.92A4,4,0,0,1,238,86h-.69a4.09,4.09,0,0,1-.09-.92,4,4,0,0,1,.09-.92H238a4.09,4.09,0,0,1-.09-.92,4,4,0,0,1,.09-.92h-.69a4.09,4.09,0,0,1-.09-.92,4,4,0,0,1,.09-.92H238a4.09,4.09,0,0,1-.09-.92,4,4,0,0,1,.09-.92,4.09,4.09,0,0,1-.09-.92,4,4,0,0,1,.09-.92,4.09,4.09,0,0,1-.09-.92A4,4,0,0,1,238,75h1.84a4,4,0,0,1,.09.92,4.09,4.09,0,0,1-.09.92A4,4,0,0,1,239.89,77.76Z" style="fill:#f1f2f2"/><path d="M258.29,81.44a4.09,4.09,0,0,1-.09.92,4,4,0,0,1,.09.92,4.09,4.09,0,0,1-.09.92h-.92a4,4,0,0,1,.09.92,4.09,4.09,0,0,1-.09.92h-.92a4,4,0,0,1,.09.92,4.09,4.09,0,0,1-.09.92h-5.52a4.09,4.09,0,0,1-.09-.92,4,4,0,0,1,.09-.92,4.09,4.09,0,0,1-.09-.92,4,4,0,0,1,.09-.92,4.09,4.09,0,0,1-.09-.92,4,4,0,0,1,.09-.92,4.09,4.09,0,0,1-.09-.92,4,4,0,0,1,.09-.92,4.09,4.09,0,0,1-.09-.92,4,4,0,0,1,.09-.92,4.09,4.09,0,0,1-.09-.92,4,4,0,0,1,.09-.92,4.09,4.09,0,0,1-.09-.92,4,4,0,0,1,.09-.92h5.52a4,4,0,0,1,.09.92,4.09,4.09,0,0,1-.09.92h.92a4,4,0,0,1,.09.92,4.09,4.09,0,0,1-.09.92h.92a4,4,0,0,1,.09.92,4.09,4.09,0,0,1-.09.92A4,4,0,0,1,258.29,81.44Zm-2,1.84a4,4,0,0,1,.09-.92,4.09,4.09,0,0,1-.09-.92,4,4,0,0,1,.09-.92,4.09,4.09,0,0,1-.09-.92,4,4,0,0,1,.09-.92h-.92a4.09,4.09,0,0,1-.09-.92,4,4,0,0,1,.09-.92h-2.76a4,4,0,0,1,.09.92,4.09,4.09,0,0,1-.09.92,4,4,0,0,1,.09.92,4.09,4.09,0,0,1-.09.92,4,4,0,0,1,.09.92,4.09,4.09,0,0,1-.09.92,4,4,0,0,1,.09.92,4.09,4.09,0,0,1-.09.92,4,4,0,0,1,.09.92,4.09,4.09,0,0,1-.09.92h2.76a4.09,4.09,0,0,1-.09-.92,4,4,0,0,1,.09-.92h.92A4.09,4.09,0,0,1,256.27,83.28Z" style="fill:#f1f2f2"/><path d="M267.4,82.36a4,4,0,0,1,.09.92,4.09,4.09,0,0,1-.09.92h-4.83a4,4,0,0,1,.09.92,4.09,4.09,0,0,1-.09.92h3.91a4,4,0,0,1,.09.92,4.09,4.09,0,0,1-.09.92h-4.6a4.09,4.09,0,0,1-.09-.92,4,4,0,0,1,.09-.92h-1.15a4.09,4.09,0,0,1-.09-.92,4,4,0,0,1,.09-.92H260a4.09,4.09,0,0,1-.09-.92,4,4,0,0,1,.09-.92h.69a4.09,4.09,0,0,1-.09-.92,4,4,0,0,1,.09-.92h1.15a4.09,4.09,0,0,1-.09-.92,4,4,0,0,1,.09-.92h4.6a4,4,0,0,1,.09.92,4.09,4.09,0,0,1-.09.92h.92a4,4,0,0,1,.09.92A4.09,4.09,0,0,1,267.4,82.36Zm-1.93-.92a4,4,0,0,1,.09-.92h-3a4,4,0,0,1,.09.92,4.09,4.09,0,0,1-.09.92h3A4.09,4.09,0,0,1,265.47,81.44Z" style="fill:#f1f2f2"/><path d="M276.6,80.52h-.69a4,4,0,0,1,.09.92,4.09,4.09,0,0,1-.09.92h-.69a4,4,0,0,1,.09.92,4.09,4.09,0,0,1-.09.92h-.46a4,4,0,0,1,.09.92,4.09,4.09,0,0,1-.09.92h-.92a4,4,0,0,1,.09.92,4.09,4.09,0,0,1-.09.92H272a4.09,4.09,0,0,1-.09-.92A4,4,0,0,1,272,86h-.92a4.09,4.09,0,0,1-.09-.92,4,4,0,0,1,.09-.92h-.46a4.09,4.09,0,0,1-.09-.92,4,4,0,0,1,.09-.92h-.69a4.09,4.09,0,0,1-.09-.92,4,4,0,0,1,.09-.92h-.69a4.09,4.09,0,0,1-.09-.92,4,4,0,0,1,.09-.92h1.84a4,4,0,0,1,.09.92,4.09,4.09,0,0,1-.09.92h.69a4,4,0,0,1,.09.92,4.09,4.09,0,0,1-.09.92h.69a4,4,0,0,1,.09.92,4.09,4.09,0,0,1-.09.92h.92a4.09,4.09,0,0,1-.09-.92,4,4,0,0,1,.09-.92h.69a4.09,4.09,0,0,1-.09-.92,4,4,0,0,1,.09-.92h.69a4.09,4.09,0,0,1-.09-.92,4,4,0,0,1,.09-.92h1.84a4,4,0,0,1,.09.92A4.09,4.09,0,0,1,276.6,80.52Z" style="fill:#f1f2f2"/><path d="M285.8,82.36a4,4,0,0,1,.09.92,4.09,4.09,0,0,1-.09.92H281a4,4,0,0,1,.09.92A4.09,4.09,0,0,1,281,86h3.91A4,4,0,0,1,285,87a4.09,4.09,0,0,1-.09.92h-4.6a4.09,4.09,0,0,1-.09-.92,4,4,0,0,1,.09-.92h-1.15a4.09,4.09,0,0,1-.09-.92,4,4,0,0,1,.09-.92h-.69a4.09,4.09,0,0,1-.09-.92,4,4,0,0,1,.09-.92h.69a4.09,4.09,0,0,1-.09-.92,4,4,0,0,1,.09-.92h1.15a4.09,4.09,0,0,1-.09-.92,4,4,0,0,1,.09-.92h4.6a4,4,0,0,1,.09.92,4.09,4.09,0,0,1-.09.92h.92a4,4,0,0,1,.09.92A4.09,4.09,0,0,1,285.8,82.36Zm-1.93-.92a4,4,0,0,1,.09-.92h-3a4,4,0,0,1,.09.92,4.09,4.09,0,0,1-.09.92h3A4.09,4.09,0,0,1,283.87,81.44Z" style="fill:#f1f2f2"/><path d="M294.17,87a4.09,4.09,0,0,1-.09.92h-5.52a4.09,4.09,0,0,1-.09-.92,4,4,0,0,1,.09-.92h1.84a4.09,4.09,0,0,1-.09-.92,4,4,0,0,1,.09-.92,4.09,4.09,0,0,1-.09-.92,4,4,0,0,1,.09-.92,4.09,4.09,0,0,1-.09-.92,4,4,0,0,1,.09-.92,4.09,4.09,0,0,1-.09-.92,4,4,0,0,1,.09-.92,4.09,4.09,0,0,1-.09-.92,4,4,0,0,1,.09-.92H289a4.09,4.09,0,0,1-.09-.92A4,4,0,0,1,289,75h3.22a4,4,0,0,1,.09.92,4.09,4.09,0,0,1-.09.92,4,4,0,0,1,.09.92,4.09,4.09,0,0,1-.09.92,4,4,0,0,1,.09.92,4.09,4.09,0,0,1-.09.92,4,4,0,0,1,.09.92,4.09,4.09,0,0,1-.09.92,4,4,0,0,1,.09.92,4.09,4.09,0,0,1-.09.92,4,4,0,0,1,.09.92,4.09,4.09,0,0,1-.09.92h1.84A4,4,0,0,1,294.17,87Z" style="fill:#f1f2f2"/><path d="M304.2,84.2h-.69a4,4,0,0,1,.09.92,4.09,4.09,0,0,1-.09.92h-1.15a4,4,0,0,1,.09.92,4.09,4.09,0,0,1-.09.92h-3.68a4.09,4.09,0,0,1-.09-.92,4,4,0,0,1,.09-.92h-1.15a4.09,4.09,0,0,1-.09-.92,4,4,0,0,1,.09-.92h-.69a4.09,4.09,0,0,1-.09-.92,4,4,0,0,1,.09-.92h.69a4.09,4.09,0,0,1-.09-.92,4,4,0,0,1,.09-.92h1.15a4.09,4.09,0,0,1-.09-.92,4,4,0,0,1,.09-.92h3.68a4,4,0,0,1,.09.92,4.09,4.09,0,0,1-.09.92h1.15a4,4,0,0,1,.09.92,4.09,4.09,0,0,1-.09.92h.69a4,4,0,0,1,.09.92A4.09,4.09,0,0,1,304.2,84.2Zm-1.84,0a4.09,4.09,0,0,1-.09-.92,4,4,0,0,1,.09-.92h-.69a4.09,4.09,0,0,1-.09-.92,4,4,0,0,1,.09-.92h-2.3a4,4,0,0,1,.09.92,4.09,4.09,0,0,1-.09.92h-.69a4,4,0,0,1,.09.92,4.09,4.09,0,0,1-.09.92h.69a4,4,0,0,1,.09.92,4.09,4.09,0,0,1-.09.92h2.3a4.09,4.09,0,0,1-.09-.92,4,4,0,0,1,.09-.92Z" style="fill:#f1f2f2"/><path d="M313.4,84.2h-.92a4,4,0,0,1,.09.92,4.09,4.09,0,0,1-.09.92h-.92a4,4,0,0,1,.09.92,4.09,4.09,0,0,1-.09.92h-3.68a4,4,0,0,1,.09.92,4.09,4.09,0,0,1-.09.92,4,4,0,0,1,.09.92,4.09,4.09,0,0,1-.09.92H306a4.09,4.09,0,0,1-.09-.92,4,4,0,0,1,.09-.92,4.09,4.09,0,0,1-.09-.92,4,4,0,0,1,.09-.92A4.09,4.09,0,0,1,306,87,4,4,0,0,1,306,86a4.09,4.09,0,0,1-.09-.92,4,4,0,0,1,.09-.92,4.09,4.09,0,0,1-.09-.92,4,4,0,0,1,.09-.92,4.09,4.09,0,0,1-.09-.92,4,4,0,0,1,.09-.92,4.09,4.09,0,0,1-.09-.92,4,4,0,0,1,.09-.92h1.84a4,4,0,0,1,.09.92,4.09,4.09,0,0,1-.09.92h.92a4,4,0,0,1,.09.92,4.09,4.09,0,0,1-.09.92h-.92a4,4,0,0,1,.09.92,4.09,4.09,0,0,1-.09.92,4,4,0,0,1,.09.92,4.09,4.09,0,0,1-.09.92h2.76a4.09,4.09,0,0,1-.09-.92,4,4,0,0,1,.09-.92h.92a4.09,4.09,0,0,1-.09-.92,4,4,0,0,1,.09-.92h-.92a4.09,4.09,0,0,1-.09-.92,4,4,0,0,1,.09-.92H308.8a4.09,4.09,0,0,1-.09-.92,4,4,0,0,1,.09-.92h2.76a4,4,0,0,1,.09.92,4.09,4.09,0,0,1-.09.92h.92a4,4,0,0,1,.09.92,4.09,4.09,0,0,1-.09.92h.92a4,4,0,0,1,.09.92A4.09,4.09,0,0,1,313.4,84.2Z" style="fill:#f1f2f2"/><path d="M316.39,80.52h.69a4,4,0,0,1,.09.92,4.09,4.09,0,0,1-.09.92,4,4,0,0,1,.09.92,4.09,4.09,0,0,1-.09.92,4,4,0,0,1,.09.92,4.09,4.09,0,0,1-.09.92,4,4,0,0,1,.09.92,4.09,4.09,0,0,1-.09.92h-1.84a4.09,4.09,0,0,1-.09-.92,4,4,0,0,1,.09-.92,4.09,4.09,0,0,1-.09-.92,4,4,0,0,1,.09-.92,4.09,4.09,0,0,1-.09-.92,4,4,0,0,1,.09-.92,4.09,4.09,0,0,1-.09-.92,4,4,0,0,1,.09-.92,4.09,4.09,0,0,1-.09-.92,4,4,0,0,1,.09-.92h1.15a4,4,0,0,1,.09.92A4.09,4.09,0,0,1,316.39,80.52Zm2.53,0h.69a4,4,0,0,1,.09.92,4.09,4.09,0,0,1-.09.92,4,4,0,0,1,.09.92,4.09,4.09,0,0,1-.09.92,4,4,0,0,1,.09.92,4.09,4.09,0,0,1-.09.92,4,4,0,0,1,.09.92,4.09,4.09,0,0,1-.09.92h-1.38a4.09,4.09,0,0,1-.09-.92,4,4,0,0,1,.09-.92,4.09,4.09,0,0,1-.09-.92,4,4,0,0,1,.09-.92,4.09,4.09,0,0,1-.09-.92,4,4,0,0,1,.09-.92,4.09,4.09,0,0,1-.09-.92,4,4,0,0,1,.09-.92h-1.15a4.09,4.09,0,0,1-.09-.92,4,4,0,0,1,.09-.92h1.84a4,4,0,0,1,.09.92A4.09,4.09,0,0,1,318.92,80.52Zm3.77,2.76a4.09,4.09,0,0,1-.09.92,4,4,0,0,1,.09.92,4.09,4.09,0,0,1-.09.92,4,4,0,0,1,.09.92,4.09,4.09,0,0,1-.09.92h-1.84a4.09,4.09,0,0,1-.09-.92,4,4,0,0,1,.09-.92,4.09,4.09,0,0,1-.09-.92,4,4,0,0,1,.09-.92,4.09,4.09,0,0,1-.09-.92,4,4,0,0,1,.09-.92,4.09,4.09,0,0,1-.09-.92,4,4,0,0,1,.09-.92h-1.15a4.09,4.09,0,0,1-.09-.92,4,4,0,0,1,.09-.92h2.07a4,4,0,0,1,.09.92,4.09,4.09,0,0,1-.09.92h.92a4,4,0,0,1,.09.92,4.09,4.09,0,0,1-.09.92A4,4,0,0,1,322.69,83.28Z" style="fill:#f1f2f2"/><path d="M331.8,82.36a4,4,0,0,1,.09.92,4.09,4.09,0,0,1-.09.92H327a4,4,0,0,1,.09.92A4.09,4.09,0,0,1,327,86h3.91A4,4,0,0,1,331,87a4.09,4.09,0,0,1-.09.92h-4.6a4.09,4.09,0,0,1-.09-.92,4,4,0,0,1,.09-.92h-1.15a4.09,4.09,0,0,1-.09-.92,4,4,0,0,1,.09-.92h-.69a4.09,4.09,0,0,1-.09-.92,4,4,0,0,1,.09-.92h.69a4.09,4.09,0,0,1-.09-.92,4,4,0,0,1,.09-.92h1.15a4.09,4.09,0,0,1-.09-.92,4,4,0,0,1,.09-.92h4.6a4,4,0,0,1,.09.92,4.09,4.09,0,0,1-.09.92h.92a4,4,0,0,1,.09.92A4.09,4.09,0,0,1,331.8,82.36Zm-1.93-.92a4,4,0,0,1,.09-.92h-3a4,4,0,0,1,.09.92,4.09,4.09,0,0,1-.09.92h3A4.09,4.09,0,0,1,329.87,81.44Z" style="fill:#f1f2f2"/><path d="M335.25,80.52h.92a4,4,0,0,1,.09.92,4.09,4.09,0,0,1-.09.92h-.69a4,4,0,0,1,.09.92,4.09,4.09,0,0,1-.09.92,4,4,0,0,1,.09.92,4.09,4.09,0,0,1-.09.92,4,4,0,0,1,.09.92,4.09,4.09,0,0,1-.09.92h-1.84a4.09,4.09,0,0,1-.09-.92,4,4,0,0,1,.09-.92,4.09,4.09,0,0,1-.09-.92,4,4,0,0,1,.09-.92,4.09,4.09,0,0,1-.09-.92,4,4,0,0,1,.09-.92,4.09,4.09,0,0,1-.09-.92,4,4,0,0,1,.09-.92,4.09,4.09,0,0,1-.09-.92,4,4,0,0,1,.09-.92h1.61a4,4,0,0,1,.09.92A4.09,4.09,0,0,1,335.25,80.52Zm5.84,2.76a4.09,4.09,0,0,1-.09.92,4,4,0,0,1,.09.92A4.09,4.09,0,0,1,341,86a4,4,0,0,1,.09.92,4.09,4.09,0,0,1-.09.92h-1.84a4.09,4.09,0,0,1-.09-.92,4,4,0,0,1,.09-.92,4.09,4.09,0,0,1-.09-.92,4,4,0,0,1,.09-.92,4.09,4.09,0,0,1-.09-.92,4,4,0,0,1,.09-.92,4.09,4.09,0,0,1-.09-.92,4,4,0,0,1,.09-.92h-3a4.09,4.09,0,0,1-.09-.92,4,4,0,0,1,.09-.92h3.68a4,4,0,0,1,.09.92,4.09,4.09,0,0,1-.09.92H341a4,4,0,0,1,.09.92,4.09,4.09,0,0,1-.09.92A4,4,0,0,1,341.09,83.28Z" style="fill:#f1f2f2"/><path d="M349.28,86a4,4,0,0,1,.09.92,4.09,4.09,0,0,1-.09.92H345.6a4.09,4.09,0,0,1-.09-.92,4,4,0,0,1,.09-.92h-.92a4.09,4.09,0,0,1-.09-.92,4,4,0,0,1,.09-.92,4.09,4.09,0,0,1-.09-.92,4,4,0,0,1,.09-.92,4.09,4.09,0,0,1-.09-.92,4,4,0,0,1,.09-.92h-1.84a4.09,4.09,0,0,1-.09-.92,4,4,0,0,1,.09-.92h1.84a4.09,4.09,0,0,1-.09-.92,4,4,0,0,1,.09-.92,4.09,4.09,0,0,1-.09-.92,4,4,0,0,1,.09-.92h1.84a4,4,0,0,1,.09.92,4.09,4.09,0,0,1-.09.92,4,4,0,0,1,.09.92,4.09,4.09,0,0,1-.09.92h2.76a4,4,0,0,1,.09.92,4.09,4.09,0,0,1-.09.92h-2.76a4,4,0,0,1,.09.92,4.09,4.09,0,0,1-.09.92,4,4,0,0,1,.09.92,4.09,4.09,0,0,1-.09.92,4,4,0,0,1,.09.92,4.09,4.09,0,0,1-.09.92Z" style="fill:#f1f2f2"/></svg>